# xmcd
#
# Track frame offsets:
#	150
#	10465
#	20332
#	30817
#	42735
#	52950
#	62127
#	73210
#	86725
#	98955
#	112055
#	122430
#
# Disc length: 1807 seconds
#
# Revision: 1
# Processed by: cddbd v1.5.1PL2 Copyright (c) Steve Scherf et al.
# Submitted via: audiograbber 1.83.01
#
DISCID=a0070d0c
DTITLE=Pat Boone - Greatest Hits
DYEAR=1992
DGENRE=Oldies
TTITLE0=Love Letters In The Sand
TTITLE1=Bernadine
TTITLE2=There's A Goldmine In The Sky
TTITLE3=I Almost Lost My Mind
TTITLE4=Don't Forbid Me
TTITLE5=Why Baby Why
TTITLE6=Ain't That A Shame
TTITLE7=I'll Be Home
TTITLE8=April Love
TTITLE9=Anastasia
TTITLE10=Remember You're Mine
TTITLE11=Chains Of Love
EXTD=
EXTT0=
EXTT1=
EXTT2=
EXTT3=
EXTT4=
EXTT5=
EXTT6=
EXTT7=
EXTT8=
EXTT9=
EXTT10=
EXTT11=
PLAYORDER=
